<svg width="924" height="924" viewBox="0 0 924 924" fill="none" xmlns="http://www.w3.org/2000/svg">
<path d="M459.573 46.0588C460.182 46.0755 462.343 46.1779 462.668 46.422C465.61 48.6495 469.232 51.6462 472.142 53.7676L520.449 88.9712L673.171 199.298C675.626 201.075 678.08 203.951 680.435 205.589C695.103 215.792 709.572 226.447 724.068 236.899L796.476 289.283C801.683 292.996 807.052 297.649 812.218 301.152C809.777 305.26 805.91 311.432 802.996 315.026C798.832 320.167 793.21 323.998 787.927 327.778C785.053 329.831 782.179 333.003 778.899 335.01C774.901 337.453 770.552 339.405 766.316 341.479C762.914 343.143 758.524 345.953 755.194 347.353C745.011 351.635 734.332 354.789 723.581 357.273C721.374 357.782 719.168 357.915 716.858 358.258C715.229 358.5 713.93 360.006 712.013 360.242C705.299 361.068 695.549 360.431 689.404 362.741C689.17 362.929 688.931 363.116 688.696 363.304C680.214 364.299 669.945 362.865 661.463 363.08C654.813 363.249 651.33 363.609 645.027 363.57C643.123 363.558 640.127 363.47 638.756 362.778C633.238 359.996 623.754 361.487 618.101 360.158C609.109 358.044 600.009 356.557 591.053 354.377C587.3 353.462 581.529 351.033 577.884 350.326C572.257 349.238 573.187 346.885 568.589 345.144C567.592 344.765 567.033 344.516 566.058 344.06C566.645 343.735 566.379 343.965 566.807 343.312C564.885 341.481 564.299 342.347 563.419 341.751C560.175 339.559 556.882 333.421 552.659 333.792C552.609 333.796 548.72 329.055 547.808 328.394C545.007 326.361 542.579 325.631 539.66 323.919C536.538 321.119 534.346 317.059 529.865 316.064C528.846 315.836 526.951 315.362 526.531 314.309L527.781 314.497L527.795 314.051C525.845 311.786 513.916 302.684 510.812 300.92C504.884 297.549 503.666 295.719 498.473 291.381C493.145 286.987 487.401 283.12 481.324 279.835L480.985 278.507C478.107 275.472 464.635 266.481 460.565 263.271C458.901 261.959 455.476 258.679 454.096 257.705C448.316 253.872 442.9 249.043 437.208 245.182C434.12 243.087 431.237 243.879 428.714 239.261C428.354 238.602 424.118 237.33 422.886 236.191C416.379 230.178 410.805 224.566 402.784 220.564L402.886 219.595C399.551 215.438 395.598 214.084 390.656 213.291C387.786 215.926 372.87 225.073 372.818 226.972C394.227 242.165 415.657 259.362 436.689 275.218L614.216 409.969L729.089 497.11C739.687 505.101 750.096 513.073 760.626 521.131C773.327 530.858 786.546 539.593 798.367 550.43C795.127 551.463 792.542 553.033 789.393 554.147C776.729 558.628 765.377 564.52 753.376 570.507C736.286 579.03 719.024 587.444 702.403 596.86C699.867 598.299 696.366 599.341 694.033 600.699C685.655 605.59 677.187 610.81 668.813 615.665C646.615 628.361 624.58 641.341 602.707 654.601C593.345 660.376 583.762 667.193 574.319 672.67C561.817 679.921 549.225 686.787 537.486 695.378C532.121 699.303 521.803 704.604 518.424 710.095C509.378 713.226 504.473 720.409 496.65 724.745C482.452 732.613 472.039 746.049 458.021 753.692C450.817 748.409 442.164 741.6 435.206 736.732C430.82 733.416 411.229 717.733 407.821 716.926C406.565 716.632 406.256 716.154 405.478 715.157C403.042 712.026 400.88 710.885 397.341 709.071C392.982 706.838 390.669 701.396 386.091 699.876C385.294 699.614 384.336 699.398 383.637 698.915C382.322 698.017 381.149 696.366 379.899 695.269C376.832 692.585 365.752 683.277 362.381 682.799C359.542 682.402 359.545 680.151 357.765 678.382C355.603 676.23 352.342 674.439 349.807 672.693L349.003 673.392C348.743 673.162 347.292 671.254 347.212 671.028C345.499 666.954 338.871 666.313 336.782 663.53C332.615 657.98 325.048 654.754 319.974 649.827C318.744 648.632 315.054 647.184 315.447 647.599C310.868 642.758 305.827 639.297 300.412 635.255L256.195 601.917C248.364 596.003 240.259 589.321 231.942 584.241C230.394 584.024 224.137 576.9 223.564 576.968C218.778 577.559 218.467 572.082 214.54 570.751C214.099 571.477 214.385 571.197 213.716 571.608C212.36 570.89 211.352 570.584 210.684 569.248L211.315 568.305C208.02 565.928 203.653 562.575 200.12 560.816L199.551 560.541L199.721 559.395C194.715 556.611 190.582 551.287 184.567 548.95C182.082 547.177 178.697 542.196 175.688 541.618C169.286 540.4 172.032 535.433 164.981 533.597C163.205 533.132 157.499 528.137 155.805 526.482C149.958 520.761 143.957 518 137.64 513.7C137.876 513.488 138.112 513.271 138.347 513.059C128.22 504.947 118.107 498.153 107.808 489.427C110.849 487.843 110.714 487.654 113.114 485.429C135.53 464.667 163.916 449.231 193.125 440.569C248.789 424.059 309.103 437.306 357.996 466.814C377.51 478.59 398.205 495.459 416.619 509.319L506.517 577.753C510.068 580.451 530.01 596.07 532.559 596.138C534.341 594.978 546.428 583.704 546.717 582.594C546.243 578.948 536.34 571.107 533.132 570.507L534.224 571.928C532.469 571.689 530.38 568.937 529.356 567.498C527.447 564.822 525.281 563.581 522.66 561.682C519.001 559.034 515.324 556.119 511.53 553.642C511.024 553.678 510.519 553.719 510.014 553.755C508.277 552.762 508.196 550.669 506.72 549.451C503.923 547.1 500.318 545.169 497.16 543.351C497.133 543.031 497.142 542.426 496.966 542.079C496.118 540.405 487.938 535.325 485.872 533.745C481.414 530.339 476.677 527.33 472.201 523.955C466.728 519.822 441.824 498.802 437.698 497.81C434.474 497.034 431.712 492.594 428.976 490.483C411.508 477.015 393.635 464.116 375.99 450.92C373.113 448.769 370.625 446.108 367.712 444.006C366.985 443.481 366.894 443.433 365.962 443.281L366.178 444.279L365.902 444.393C364.455 443.282 363.554 442.014 362.506 440.531C360.294 437.403 333.514 417.285 329.026 414.779L328.273 415.128C325.814 414.983 324.482 411.398 322.782 409.544C320.808 407.391 316.587 406.565 315.033 405.281C312.678 403.334 310.532 399.788 307.57 397.926C305.579 396.674 303.146 396.577 301.804 395.163L302.319 394.489C301.196 392.981 288.907 384.151 286.721 382.435C286.263 382.075 282.093 380.131 280.654 379.155C280.597 378.995 280.106 377.584 279.943 377.418C276.098 373.498 270.345 370.4 265.809 367.272C264.232 366.252 263.186 364.184 261.714 363.122C260.274 362.085 258.7 362.43 256.999 361.407L257.64 360.932L257.566 360.4C248.839 355.154 241.237 346.344 232.176 341.483C227.941 339.211 227.029 334.722 220.971 333.297C219.892 333.044 216.904 329.507 215.655 328.34C209.953 323.009 204.101 319.78 197.307 316.325C193.707 313.809 190.778 309.332 187.358 306.805C160.955 287.288 134.134 266.974 108.561 246.369C115.106 244.795 119.964 242.33 126.093 240.017C137.944 235.544 148.954 229.883 160.366 224.737C185.745 213.297 210.565 200.754 235.276 187.931C254.202 178.032 272.858 167.702 291.546 157.384C298.934 153.305 306.285 149.094 313.668 144.994C317.32 142.962 320.701 140.362 324.38 138.388C338.657 130.728 352.027 122.442 365.546 113.56C374.706 107.54 389.591 99.6743 398.234 93.4147C408.568 85.9307 456.879 54.7123 459.573 46.0588Z" fill="black" fill-opacity="0.7"/>
<path d="M135.921 774.428C151.496 774.36 166.833 773.868 181.093 781.534C188.242 785.378 193.472 791.586 195.56 799.445C196.173 801.755 196.839 805.549 195.6 807.706C191.699 808.658 183.566 807.494 179.116 807.846C171.907 808.414 165.333 808.374 158.151 807.363C153.691 803.28 151.603 801.263 145.196 798.895C140.154 796.53 123.495 797.239 129.435 806.159C132.399 810.612 154.784 811.649 160.19 812.317C164.103 812.827 167.991 813.504 171.845 814.352C177.879 815.696 182.956 818.566 188.175 819.617C189.687 821.399 191.748 823.366 193.01 824.819C198.094 830.662 204.987 842.595 199.683 849.836C199.544 850.026 199.015 853.874 198.828 854.709C196.78 863.823 191.427 871.615 181.987 874.182C180.043 874.701 175.139 877.083 173.426 877.25C164.597 878.098 155.21 877.71 146.293 877.683C139.614 877.687 122.732 878.08 116.621 877.399L115.723 877.295C110.123 876.69 95.5406 870.238 91.3718 865.285C85.1023 857.831 83.1366 852.904 83.2458 843.353C96.0608 843.349 117.508 842.726 129.85 843.592C135.925 853.392 145.198 855.228 155.716 851.176C156.633 845.654 157.57 841.156 150.729 840.556C141.588 839.757 129.124 838.061 120.148 837.519C103.916 836.545 85.8544 831.514 83.105 813.111C78.4178 781.746 112.117 774.82 135.921 774.428Z" fill="black" fill-opacity="0.7"/>
<path d="M371.453 777.482C381.313 776.981 396.814 777.491 407.098 777.495L481.599 777.459C482.226 783.491 482.487 795.348 481.012 801.087C474.624 808.509 431.987 846.579 431.527 848.586C435.158 849.85 474.754 849.412 481.829 849.507C481.973 854.727 482.433 870.802 481.739 875.079L407.131 875.12C400.541 875.124 376.877 875.639 371.552 874.664C371.433 871.046 370.291 854.916 372.491 852.665C388.611 836.17 405.561 818.678 422.791 803.393C417.426 802.811 412.476 803.153 407.122 803.081C395.53 802.923 382.917 803.614 371.44 802.86C371.127 794.956 371.341 785.477 371.453 777.482Z" fill="black" fill-opacity="0.7"/>
<path d="M689.634 777.468C690.063 784.728 689.106 802.603 689.959 808.058C692.391 809.15 695.766 804.877 697.597 803.145C702.691 798.353 707.758 793.526 712.793 788.671C726.86 774.969 723.567 777.338 743.193 777.392L771.793 777.419C768.864 780.581 767.475 784.159 763.419 787.732C760.369 790.837 755.916 793.196 752.87 796.165C743.815 804.981 730.844 814.758 722.863 824.219C727.402 828.397 731.981 833.522 736.547 837.826C741.433 842.433 746.558 846.944 751.007 851.939C752.518 853.112 771.111 873.694 771.22 874.227C770.958 874.358 770.29 874.709 769.938 874.723C758.758 875.048 734.742 876.383 724.979 874.168C719.231 870.468 712.269 862.126 706.531 859.067C698.423 854.745 695.847 848.911 690.518 842.938C689.445 850.342 689.968 867.044 690.013 875.156C682.555 875.427 662.013 875.395 654.957 874.822C654.172 863.656 654.88 851.655 654.574 840.438C653.743 830.959 655.083 820.83 654.632 811.482C654.068 799.716 654.294 789.167 654.826 777.405C666.426 777.495 678.03 777.518 689.634 777.468Z" fill="black" fill-opacity="0.7"/>
<path d="M695.044 834.889C696.425 835.444 696.406 835.895 696.56 837.172C695.91 838.841 695.694 838.905 694.254 840.091C692.788 839.13 693.257 839.757 692.657 838.268C692.991 836.707 693.907 836.053 695.044 834.889Z" fill="black" fill-opacity="0.7"/>
<path d="M677.259 821.39C678.152 823.971 676.433 823.619 677.529 825.473C679.339 825.762 679.817 825.617 680.061 827.332C678.558 826.998 677.191 826.944 676.262 825.834C675.869 824.377 676.69 822.874 677.259 821.39Z" fill="black" fill-opacity="0.7"/>
<path d="M507.614 777.577C515.888 777.013 533.705 777.378 542.44 777.527C543.441 798.795 542.34 822.324 542.9 843.976C545.607 846.714 548.025 849.06 552.397 850.076C559.413 851.713 577.374 852.435 580.622 844.26C581.281 842.6 580.889 832.439 580.947 829.628C581.222 817.352 581.421 805.076 581.534 792.795C581.538 787.516 581.556 783.28 581.037 778.078C583.79 776.963 612.511 777.432 617.483 777.527C617.97 786.329 617.867 796.197 617.939 805.076L618.002 830.824C618.038 857.84 614.663 870.505 586.325 877.141C584.123 877.66 579.508 877.728 577.261 877.62C564.105 876.997 547.389 878.806 534.67 877.195C532.672 875.364 529.771 874.858 527.177 874.006C511.593 868.876 506.193 857.511 506.026 841.706C505.818 821.774 506.003 801.719 506.089 781.782C506.098 780.315 506.472 778.574 507.614 777.577Z" fill="black" fill-opacity="0.7"/>
<path d="M233.944 777.41C245.466 777.518 256.988 777.514 268.51 777.405C268.716 778.957 268.855 779.756 269.211 781.276C269.215 790.327 267.624 838.607 270.103 843.579C273.953 850.387 283.294 851.321 290.351 851.19C297.667 851.05 302.728 850.139 307.929 844.774C309.897 837.998 308.795 821.336 308.856 813.549C308.949 801.48 308.592 789.628 309.049 777.455C320.625 777.518 332.201 777.514 343.777 777.446C344.619 783.022 344.142 796.264 344.142 802.405C344.142 816.256 344.125 830.025 343.948 843.935C343.817 854.276 342.26 859.243 334.761 866.688C329.201 872.21 320.477 874.876 313.286 877.313C311.686 877.859 297.506 877.62 295.137 877.597C286.178 877.426 276.914 878.062 267.985 877.611C255.472 876.974 237.419 868.831 235.015 855.002C232.938 843.051 233.717 828.947 233.712 816.689C233.707 803.731 233.423 790.277 233.944 777.41Z" fill="black" fill-opacity="0.7"/>
<path d="M839.225 777.153L839.915 777.631C840.574 784.561 840.227 799.35 840.285 806.74C840.542 829.565 840.457 852.39 840.024 875.21L806.456 875.116L805.599 874.773C804.327 872.625 804.999 841.151 805.026 836.788L804.841 777.333C815.516 777.459 828.762 777.902 839.225 777.153Z" fill="black" fill-opacity="0.7"/>
<path d="M269.211 781.276L270.901 781.75C272.161 784.435 271.099 838.295 270.103 843.579C267.625 838.607 269.215 790.327 269.211 781.276Z" fill="black" fill-opacity="0.7"/>
</svg>
